g plane
v -10.4882 -0.7862707 -9.786099
v -10.4882 -2.424741 -9.786099
v -10.28256 -2.424741 -10.28256
v -10.28256 -0.7862706 -10.28256
v -10.28256 -0.2898107 -9.786099
v -10.19132 -0.3810507 -10.19132
v -10.28256 -0.7862706 -10.28256
v -10.28256 -2.424741 -10.28256
v -9.786099 -2.424741 -10.4882
v -9.786099 -0.7862705 -10.4882
v 9.786099 -2.424741 -10.4882
v -9.786099 -0.2898106 -10.28256
v -10.19132 -0.3810507 -10.19132
v -10.28256 -0.2898107 -9.786099
v 9.786099 -0.7862705 -10.4882
v 10.28256 -2.424741 -10.28256
v 10.28256 -0.7862706 -10.28256
v 9.786099 -0.2898106 -10.28256
v 10.19132 -0.3810507 -10.19132
v 10.28256 -0.2898107 -9.786099
v -9.786099 -0.08417074 -9.786099
v -10.28256 -0.2898138 9.7861
v 9.786099 -0.08417074 -9.786099
v -9.786099 -0.08417393 9.7861
v 9.786099 -0.08417393 9.7861
v 10.28256 -0.2898138 9.7861
v 9.786099 -0.2898139 10.28256
v 10.19132 -0.381054 10.19132
v -9.786099 -0.2898139 10.28256
v -10.19132 -0.381054 10.19132
v 10.28256 -0.786274 10.28256
v 10.28256 -0.2898138 9.7861
v 9.786099 -0.786274 10.4882
v -10.28256 -0.786274 10.28256
v -10.28256 -0.2898138 9.7861
v -9.786099 -0.786274 10.4882
v 9.786099 -2.424744 10.4882
v -9.786099 -2.424744 10.4882
v -10.28256 -2.424744 10.28256
v 10.28256 -2.424744 10.28256
v -10.4882 -2.424744 9.7861
v -10.4882 -0.7862738 9.7861
v -10.28256 -0.2898107 -9.786099
v -10.4882 -0.7862707 -9.786099
v -10.4882 -2.424741 -9.786099
v 10.4882 -0.7862738 9.7861
v 10.4882 -2.424744 9.7861
v 10.4882 -2.424741 -9.786099
v 10.4882 -0.7862707 -9.786099
v 10.28256 -0.2898107 -9.786099
v 10.28256 -0.7862706 -10.28256
v 10.28256 -2.424741 -10.28256
v 10.19132 -0.3810507 -10.19132
vt 0.133368 0.212504
vt 0.133368 0.125
vt 0.375 0.625
vt 0.174577 0.324366
vt 0.141571 0.25
vt 0.125 0.25
vt 0.375 0.524789
vt 0.375 0.625
vt 0.383368 0.625
vt 0.383368 0.537496
vt 0.616632 0.625
vt 0.381628 0.493983
vt 0.375 0.5
vt 0.375 0.483429
vt 0.616632 0.537496
vt 0.875 0.125
vt 0.674577 0.425634
vt 0.618372 0.493983
vt 0.625 0.5
vt 0.625 0.483429
vt 0.383368 0.491632
vt 0.375 0.266571
vt 0.616632 0.491632
vt 0.383368 0.258368
vt 0.616632 0.258368
vt 0.625 0.266571
vt 0.618372 0.256017
vt 0.625 0.25
vt 0.381628 0.256017
vt 0.375 0.25
vt 0.625 0.212521
vt 0.641571 0.25
vt 0.616632 0.212504
vt 0.375 0.212521
vt 0.358429 0.25
vt 0.383368 0.212504
vt 0.616632 0.125
vt 0.383368 0.125
vt 0.375 0.125
vt 0.625 0.125
vt 0.366632 0.125
vt 0.366632 0.212504
vt 0.141571 0.25
vt 0.133368 0.212504
vt 0.133368 0.125
vt 0.633368 0.212504
vt 0.633368 0.125
vt 0.866632 0.125
vt 0.866632 0.212504
vt 0.858429 0.25
vt 0.875 0.225211
vt 0.875 0.125
vt 0.875 0.25
vn -0.9954004 0.09532518 -0.009550272
vn -0.9999473 0 -0.01027198
vn -0.7071066 0 -0.7071069
vn -0.7052382 0.07265446 -0.7052379
vn -0.7019302 0.7122082 -0.007303759
vn -0.6460438 0.4064881 -0.6460609
vn -0.7052382 0.07265446 -0.7052379
vn -0.7071066 0 -0.7071069
vn -0.01027174 0 -0.9999473
vn -0.009554431 0.09531753 -0.995401
vn 0.01027173 0 -0.9999473
vn -0.007304162 0.71221 -0.7019285
vn -0.6460438 0.4064881 -0.6460609
vn -0.7019302 0.7122082 -0.007303759
vn 0.00955035 0.09532537 -0.9954004
vn 0.7071066 0 -0.7071069
vn 0.705238 0.07265465 -0.705238
vn 0.007304027 0.7122084 -0.70193
vn 0.6460614 0.4064884 -0.6460434
vn 0.7019272 0.7122112 -0.007303923
vn -0.01003128 0.9998994 -0.01003028
vn -0.7019288 0.7122097 0.007304252
vn 0.0100186 0.9998994 -0.01004304
vn -0.01003049 0.9998994 0.01003181
vn 0.01004315 0.9998994 0.0100191
vn 0.7019287 0.7122097 0.007304311
vn 0.007304072 0.712211 0.7019274
vn 0.6460434 0.4064877 0.6460615
vn -0.007304072 0.7122096 0.7019289
vn -0.6460614 0.4064878 0.6460435
vn 0.7052377 0.07265417 0.7052382
vn 0.7019287 0.7122097 0.007304311
vn 0.009560301 0.0953055 0.9954021
vn -0.7052379 0.07265425 0.7052381
vn -0.7019288 0.7122097 0.007304252
vn -0.009560836 0.09530472 0.9954022
vn 0.01027174 0 0.9999473
vn -0.01027173 0 0.9999473
vn -0.7071064 0 0.7071072
vn 0.7071064 0 0.7071072
vn -0.9999473 -7.041199E-06 0.0102723
vn -0.9954011 0.09531719 0.009554565
vn -0.7019302 0.7122082 -0.007303759
vn -0.9954004 0.09532518 -0.009550272
vn -0.9999473 0 -0.01027198
vn 0.9954022 0.09530453 0.009561105
vn 0.9999473 0 0.0102723
vn 0.9999473 -0.0001348237 -0.01027203
vn 0.9954021 0.09530567 -0.009560228
vn 0.7019272 0.7122112 -0.007303923
vn 0.705238 0.07265465 -0.705238
vn 0.7071066 0 -0.7071069
vn 0.6460614 0.4064884 -0.6460434
g plane_0
f 3/3/3 2/2/2 1/1/1
f 4/4/4 3/3/3 1/1/1
f 1/1/1 5/5/5 4/4/4
f 5/5/5 6/6/6 4/4/4
f 9/9/9 8/8/8 7/7/7
f 10/10/10 9/9/9 7/7/7
f 11/11/11 9/9/9 10/10/10
f 10/10/10 7/7/7 12/12/12
f 7/7/7 13/13/13 12/12/12
f 12/12/12 13/13/13 14/14/14
f 15/15/15 11/11/11 10/10/10
f 16/16/16 11/11/11 15/15/15
f 17/17/17 16/16/16 15/15/15
f 18/18/18 15/15/15 10/10/10
f 15/15/15 18/18/18 17/17/17
f 12/12/12 18/18/18 10/10/10
f 18/18/18 19/19/19 17/17/17
f 20/20/20 19/19/19 18/18/18
f 21/21/21 12/12/12 14/14/14
f 21/21/21 14/14/14 22/22/22
f 23/23/23 18/18/18 12/12/12
f 23/23/23 20/20/20 18/18/18
f 21/21/21 23/23/23 12/12/12
f 24/24/24 21/21/21 22/22/22
f 23/23/23 21/21/21 24/24/24
f 20/20/20 23/23/23 25/25/25
f 25/25/25 23/23/23 24/24/24
f 26/26/26 20/20/20 25/25/25
f 25/25/25 27/27/27 26/26/26
f 27/27/27 25/25/25 24/24/24
f 27/27/27 28/28/28 26/26/26
f 24/24/24 22/22/22 29/29/29
f 29/29/29 27/27/27 24/24/24
f 22/22/22 30/30/30 29/29/29
f 31/31/31 28/28/28 27/27/27
f 32/32/32 28/28/28 31/31/31
f 33/33/33 27/27/27 29/29/29
f 33/33/33 31/31/31 27/27/27
f 29/29/29 30/30/30 34/34/34
f 34/34/34 30/30/30 35/35/35
f 36/36/36 33/33/33 29/29/29
f 36/36/36 29/29/29 34/34/34
f 33/33/33 37/37/37 31/31/31
f 37/37/37 33/33/33 36/36/36
f 38/38/38 37/37/37 36/36/36
f 39/39/39 38/38/38 36/36/36
f 34/34/34 39/39/39 36/36/36
f 37/37/37 40/40/40 31/31/31
f 41/41/41 39/39/39 34/34/34
f 42/42/42 34/34/34 35/35/35
f 42/42/42 41/41/41 34/34/34
f 35/35/35 43/43/43 42/42/42
f 43/43/43 44/44/44 42/42/42
f 41/41/41 42/42/42 44/44/44
f 45/45/45 41/41/41 44/44/44
f 31/31/31 40/40/40 46/46/46
f 40/40/40 47/47/47 46/46/46
f 46/46/46 32/32/32 31/31/31
f 47/47/47 48/48/48 46/46/46
f 46/46/46 49/49/49 32/32/32
f 48/48/48 49/49/49 46/46/46
f 49/49/49 50/50/50 32/32/32
f 49/49/49 48/48/48 51/51/51
f 49/49/49 51/51/51 50/50/50
f 48/48/48 52/52/52 51/51/51
f 51/51/51 53/53/53 50/50/50
